<?xml version="1.0" encoding="utf-8"?>
<!-- Generator: Adobe Illustrator 23.0.1, SVG Export Plug-In . SVG Version: 6.00 Build 0)  -->
<svg version="1.1" id="Capa_1" xmlns="http://www.w3.org/2000/svg" xmlns:xlink="http://www.w3.org/1999/xlink" x="0px" y="0px"
	 viewBox="0 0 714.13 796.24" style="enable-background:new 0 0 714.13 796.24;" xml:space="preserve">
<style type="text/css">
	.st0{fill:#669966;}
	.st1{fill:#436E54;}
	.st2{fill:#998E66;}
	.st3{fill:#B2E5A8;}
	.st4{fill:#FEFEFE;}
	.st5{fill:#988E66;}
</style>
<g>
	<path class="st0" d="M100.43,398.36c-19.73-1.64-38.21-6.85-55.46-17.02c-17.05-10.05-30.05-24.19-42.56-38.98
		c-4.42-5.22-2.57-9.67,4.2-10.99c1.97-0.38,4.02-0.51,6.03-0.54c7.89-0.12,15.81-0.63,23.66-0.13c14.55,0.93,29.08,2.25,43.57,3.81
		c11.37,1.23,22.67,3.06,34,4.62c0.5,0.15,0.99,0.3,1.49,0.45c-0.18-0.47-0.35-0.94-0.53-1.41c-0.44-1.46-0.88-2.91-1.49-4.91
		c-7.65,2.8-14.22-0.41-20.94-2.74c-29.08-10.1-50.66-29.3-66.68-55.16c-5.31-8.57-7.57-18.33-8.7-28.09
		c-1.29-11.13-1.36-22.42-1.69-33.65c-0.17-5.93,2.55-7.73,8.08-5.53c2.47,0.98,4.73,2.56,6.99,4.01
		c11.34,7.29,22.62,14.66,33.98,21.91c1.48,0.95,3.28,1.39,4.94,2.07c0.44,0.19,0.89,0.39,1.33,0.58c-0.2-0.45-0.4-0.89-0.6-1.34
		c-3.26-7.87-6.62-15.71-9.75-23.63c-3.88-9.81-8.47-19.35-10.18-29.95c-1.52-9.39-1.51-18.76-0.62-28.16
		c0.37-3.87,1.98-5.36,5.94-4.28c4.7,1.28,9.29,3.32,13.56,5.7c4.66,2.61,8.9,5.98,14.02,9.5c-0.1-2.27,0.08-3.78-0.26-5.16
		c-3.82-15.23-4.35-30.73-3.51-46.28c0.48-8.84,3.77-17.06,7.07-25.2c1.33-3.27,4.01-4.44,7.13-3.59
		c14.96,4.09,30.28,7.46,41.78,19.14c0.94,0.96,1.99,1.82,3.05,2.65c0.32,0.25,0.85,0.24,1.64,0.43c0.39-0.6,1.09-1.24,1.24-1.99
		c2.85-14.53,5.49-29.11,8.47-43.61c1.79-8.73,4.57-10.04,12.67-6.05c4.83,2.38,9.35,5.38,13.99,8.14c2.49,1.48,4.93,3.03,7.79,4.8
		c4.51-6.05,8.48-12.03,13.12-17.44c5.12-5.96,10.52-11.76,16.39-16.97c6.01-5.34,9.65-4.1,12.75,3.25
		c2.62,6.22,5.4,12.36,7.97,18.6c4.35,10.54,11.73,19.08,18.4,28.72c1.93-8.19,3.48-15.9,5.58-23.47
		c3.87-13.96,9.93-26.99,17.5-39.32c3.96-6.45,5.99-7.13,13.21-3.94c2.25,1,4.28,2.48,6.39,3.78c7.85,4.85,15.65,9.79,23.55,14.56
		c4.66,2.8,5.1,2.74,8.43-1.33c7.38-9.03,19.98-18.65,26.63-21.83c6.69-5.56,9.94-1.6,14.37,1.84c6.9,5.35,13.67,10.87,19.97,15.9
		c6.03-6.79,12.09-14.03,18.63-20.8c3.08-3.19,7.02-5.6,10.72-8.14c2.84-1.95,5.71-1.6,7.64,1.39c9.54,14.81,18.38,29.93,20.8,47.85
		c0.27,1.99,0.76,3.94,1.38,7.06c8.29-7.58,13.89-16.6,21.5-23.6C476.49,27,479.48,16,489.68,10.84c1.87,2.28,3.76,3.96,4.9,6.05
		c6.25,11.48,12.11,23.15,14.22,36.27c0.28,1.77,0.65,3.54,0.71,5.32c0.19,6.28,0.14,6.28,5.32,11.08
		c4.16-3.18,6.29-7.89,8.94-12.18c4.02-6.51,7.71-13.24,11.97-19.58c5.25-7.81,10.04-9.69,14.56,0.91
		c6.88,16.13,14.3,32.05,17.97,49.33c1.02,4.82,1.72,9.7,2.72,15.45c2.88-2.31,5.41-4.38,7.98-6.39
		c7.61-5.94,15.03-12.17,22.94-17.69c5.99-4.17,10.15-2.42,11.95,4.61c1.61,6.29,2.85,12.71,3.81,19.13
		c3.55,23.76,1.24,47.15-5.67,70.02c-1.84,6.08-5.72,11.55-8.63,17.32c-0.47,0.92-0.75,1.93-1.54,4c2.37-1.05,3.97-1.56,5.38-2.4
		c16.62-9.91,33.24-19.83,49.8-29.84c4.43-2.68,8.5-5.96,13.03-8.44c6.67-3.66,9.13-2.27,10.3,5.4c3.35,22.11,0.79,43.48-8.15,64.03
		c-1.97,4.54-3.72,9.18-5.73,13.7c-3.22,7.22-6.72,14.1-13.44,19.08c-2.94,2.18-7.12,4.36-6.92,9.28c-0.15,0.43-0.3,0.85-0.45,1.28
		c0.28-0.29,0.56-0.58,0.83-0.87c1.4-0.65,2.86-1.19,4.19-1.96c10.48-6.12,20.84-12.47,31.44-18.37c8.66-4.81,17.83-8.4,27.74-9.97
		c3.08-0.49,4.44,0.48,4.25,3.27c-0.22,3.33-0.56,6.74-1.5,9.92c-3.12,10.52-5.76,21.28-10,31.35
		c-8.52,20.22-21.28,37.44-39.49,50.2c-6.43,4.51-12.97,8.87-19.43,13.34c-0.5,0.34-0.78,1-2.03,2.67c7.39-0.82,13.77-1.14,20-2.3
		c13.88-2.57,27.69-5.53,41.51-8.41c2.42-0.5,4.82-1.61,6.78,0.87c2.09,2.65,1.79,5.35,0.15,8.15c-4.44,7.59-9.33,14.76-15.37,21.27
		c-16.15,17.42-35.14,30.82-56.4,41.1c-5.23,2.53-10.84,4.25-16.28,6.35c-3.18,0.9-6.36,1.8-9.54,2.7
		c-9.45,1.35-18.88,3.67-28.35,3.81c-13.65,0.21-27.4,1.7-41.05-0.9c-2.02-0.38-4.31,0.68-6.47,1.07c-2.87-0.88-5.69-2.27-8.61-2.53
		c-8.73-0.76-17.01-2.84-24.9-6.69c-1.39-0.68-3.34-0.84-4.88-0.5c-8.63,1.9-17.16,4.29-25.82,5.99c-9.91,1.94-19.9,1.77-29.9,0.13
		c-1.73-0.28-4.03,0.23-5.46,1.24c-5.44,3.86-10.65,8.03-15.86,12.19c-0.57,0.45-0.62,1.55-0.9,2.35c-1.56,0.12-3.35-0.2-4.65,0.45
		c-7.66,3.84-15.92,5.71-24.22,7.16c-6.34,1.11-12.83,1.58-19.27,1.78c-4.19,0.13-8.42-1.21-12.6-1.07
		c-7.6,0.26-14.51-1.54-20.3-5.23c-5.5,2.33-10.26,5.35-15.4,6.26c-7.42,1.32-15.12,1.34-22.7,1.5c-8.79,0.19-17.33-1.72-25.27-5.3
		c-8.02-3.62-15.68-8.05-23.5-12.13c-5.99-6.81-11.97-13.63-17.55-19.98c-4.6,0.8-8.71,2.09-12.85,2.14
		c-12.69,0.17-24.56-3.8-35.96-8.84c-7.32-3.23-14.31-5.82-22.18-2.35c-0.79,0.35-1.74,0.36-2.62,0.45
		c-9.74,0.94-19.48,1.84-29.21,2.83c-0.52,0.05-0.98,0.78-1.47,1.2c-2.13-0.43-4.25-1.13-6.4-1.23c-4.22-0.19-8.45-0.05-12.68-0.04
		C107.79,399.23,104.11,398.79,100.43,398.36z M108.86,184.32c0.29,0.18,0.58,0.35,0.88,0.53c-0.31-0.16-0.63-0.31-0.94-0.47
		c-0.04-2.25,0.28-4.58-0.17-6.74c-3.57-17.03,0.68-32.84,7.51-48.18c2.39-5.37,6.87-6.17,11.65-2.42c2.82,2.22,5.19,5,7.86,7.43
		c1.06,0.97,2.37,1.66,3.68,2.56c0.37-0.94,0.68-1.36,0.67-1.77c-0.4-13.41-8.18-22.55-18.38-29.6c-9.25-6.39-20.46-8.38-31.3-12.01
		c-1.1,6.95-2.64,13.28-3.01,19.68c-0.8,13.91-0.12,27.82,2.65,41.52c2.07,10.25,3.76,20.83,14.72,26.19
		C106.22,181.81,107.47,183.21,108.86,184.32z M192.74,211.48c0.35,0.17,0.71,0.34,1.06,0.51c-0.32-0.2-0.65-0.4-0.97-0.6
		c0-3.92-1.7-6.63-5.11-8.77c-8.11-5.1-14.16-12.42-19.96-19.87c-13.14-16.87-27.39-32.73-42.67-47.67
		c-0.87-0.85-2.05-1.4-3.58-2.42c-9.21,35.03-3.7,65.19,24.46,89.21c2.21-6.14,3.96-12.15,6.5-17.8c2.96-6.56,6.29-7.97,13.05-5.48
		c5.43,2,10.53,4.93,15.78,7.44C185.11,207.86,188.93,209.66,192.74,211.48z M471.75,331.98c10.47-2.06,20.87-4.81,31.44-5.97
		c8.83-0.97,17.94-0.78,26.8,0.16c7.44,0.79,14.7,3.41,21.61,5.11c26.26-24.39,33.64-54.2,24.6-89.62
		c-2.27,1.78-4.12,3.13-5.86,4.61c-9.55,8.16-18.83,16.64-28.68,24.41c-5.41,4.27-11.7,7.43-17.66,10.97
		c-9.79,5.82-18.79,13.04-29.82,16.7c-2.95,0.98-5.65,2.74-8.43,4.21c-3.33,1.77-5.44,4.37-5.96,8.28c-0.32,2.41-0.92,4.85-1.84,7.1
		c-1.93,4.72-4.16,9.32-6.26,13.97c-0.17,0.33-0.34,0.67-0.52,1C471.36,332.6,471.56,332.29,471.75,331.98z M164.22,307.72
		c0.4,0.15,0.81,0.3,1.21,0.44c-0.3-0.25-0.61-0.5-0.91-0.74c-0.89-2.5-1.66-5.05-2.68-7.49c-7.67-18.33-15.97-36.46-16.53-56.9
		c-0.05-1.73-1.41-3.62-2.59-5.1c-7.5-9.45-15.12-18.81-22.68-28.2c-0.56-0.7-1.21-1.38-1.55-2.19c-2.47-5.85-7.33-9.64-11.95-13.52
		c-8.55-7.18-17.2-14.26-26.08-21.02c-8-6.09-15.85-12.53-25.74-16.29c0.72,4.1,1.23,7.83,2.06,11.49
		c2.72,11.97,6.46,23.55,11.05,35.02c9.66,24.16,22.75,45.97,39.41,65.94c10.4,12.47,21.81,23.07,37.1,29.13
		c3.92,1.56,7.37,4.26,11.19,6.13C158.29,305.78,161.31,306.64,164.22,307.72z M701.88,341.39c-4.71,1.35-9.4,2.79-14.14,4.04
		c-7.32,1.93-14.62,4.02-22.04,5.49c-8.29,1.64-16.68,2.86-25.08,3.9c-5.51,0.68-11.11,0.69-16.66,1.04
		c-2.13,0.13-4.47-0.18-6.33,0.61c-9.68,4.08-19.29,8.32-29.59,10.67c-13.95,3.18-27.94,6.07-42.56,5.44
		c-7.68,15.28-22.16,22.85-35.67,32.21c2.43,0.3,4.21,0.44,5.97,0.75c14.07,2.54,28.12,5.39,42.53,4.95
		c11.22-0.34,22.51-0.19,33.61-1.5c10.79-1.28,21.86-2.86,31.97-6.57c21.68-7.95,40.9-20.31,57.32-36.78c3-3.01,6.73-5.37,9.43-8.62
		c4.09-4.92,7.56-10.35,11.3-15.56c0.2-0.33,0.4-0.66,0.6-0.99C702.31,340.77,702.1,341.08,701.88,341.39z M431.07,203.38
		c0.48-0.18,0.95-0.37,1.43-0.55c-0.17-1.95-0.04-3.98-0.55-5.84c-1.94-7.09-3.95-14.18-6.19-21.18c-6.1-19-16.85-35.26-31.28-48.71
		c-10.78-10.05-22.89-18.67-34.37-27.99c-2.83-2.29-5.27-2.09-7.62,0.61c-6.19,7.1-12.44,14.14-18.56,21.3
		c-11.52,13.47-20.09,28.52-24.14,45.92c-1.21,5.2-2.12,10.48-3.28,15.69c-1.58,7.09-1.63,7.09,4.69,10.84
		c0.38,0.23,0.83,0.35,1.23,0.55c11.72,5.76,21.17,14.09,29,24.55c9.21,12.3,17.17,25.1,19.97,40.5c0.46,2.55,0.8,5.11,1.24,7.95
		c1.09-0.4,1.83-0.46,2.23-0.86c9.09-9.08,19.07-17.47,26.98-27.49c9.73-12.32,22.01-22.48,30.15-36.09
		c1.37-2.3,3.59-2.59,5.89-1.45C429.05,201.72,430.02,202.62,431.07,203.38z M399.46,374.9c2.61-3.11,4.33-5.63,6.51-7.67
		c11.88-11.12,25.08-20.19,40.51-25.81c2.81-1.02,5.99-2.47,7.77-4.7c12.6-15.81,19.03-33.43,16.36-54.12
		c-1.27-9.85-4.15-18.91-9.66-26.86c-6.24-9-13.32-17.44-20.26-25.94c-4.61-5.65-9.6-10.99-14.49-16.54
		c-1.51,2.75-2.57,5.58-4.37,7.81c-10.14,12.56-19.47,25.78-31.25,36.99c-5.68,5.41-10.79,11.43-16.11,17.22
		c-3.9,4.25-8.1,8.31-11.51,12.93c-7.16,9.71-9.79,21.52-14.09,32.53c-0.9,2.3-0.13,5.24-0.13,7.98
		c9.79,4.42,19.44,8.61,28.94,13.12c10.67,5.05,16.78,13.8,19.53,25.11C397.79,369.24,398.51,371.51,399.46,374.9z M262.31,172.38
		c-4.05,6.14-8.03,11.31-11.06,16.99c-4.98,9.34-7.5,19.37-8.8,30.03c-2.48,20.36,0.78,38.59,14.55,54.55
		c5.8,6.73,12.78,12.73,15.82,21.62c0.51,1.49,2.21,3.06,3.73,3.65c19.1,7.49,38.28,14.81,58.1,22.43
		c2.95-7.42,5.56-14.31,8.42-21.08c2.26-5.34,4.87-10.53,7.23-15.83c0.9-2.01,2-4.1,2.18-6.23c0.66-7.88-0.27-15.63-2.58-23.24
		c-4.13-13.61-12.38-24.77-20.98-35.74c-1.93-2.47-3.66-5.3-6.12-7.11c-6.66-4.91-13.57-9.52-20.55-13.97
		C289.24,190.18,274.62,184.45,262.31,172.38z M160.82,207.1c-0.68,2.12-1.51,3.96-1.84,5.88c-0.68,3.96-0.83,8.02-1.68,11.93
		c-2.34,10.76-1.68,21.54,0.85,31.98c3.97,16.35,10.21,32,18.49,46.67c6.02,10.68,14.62,19.43,24.22,26.89
		c10.65,8.27,22.6,14.57,34.79,20.32c8.2,3.86,16.94,4.8,26.71,5.67c-1.06-3.42-1.68-5.96-2.61-8.38
		c-3.51-9.11-5.4-18.44-4.76-28.26c0.24-3.59,0.75-7.44-0.25-10.76c-1.68-5.59-1.07-10.54,1.81-15.3c-2.46-3.03-4.58-5.93-7-8.56
		c-9.13-9.92-15.85-21.21-18.46-34.49c-0.81-4.1-2.86-6.29-6.05-8.19c-16.17-9.62-32.23-19.41-48.5-28.86
		C171.8,210.88,167.09,207.6,160.82,207.1z M482.77,289.88c10.24-0.86,17.92-5.87,25.91-10.37c8.92-5.01,15.3-12.46,20.55-20.79
		c7.08-11.24,9.35-24.05,10.14-37.14c0.74-12.38-2.23-23.97-7.62-35.02c-5.38-11.02-14-19.69-21.59-29.05
		c-2.59-3.19-6.52-6.35-11.5-5.63c-12.08,26.95-24.26,53.65-44.76,75.63c6.88,9.6,14.33,18.61,20.19,28.55
		C480.03,266.14,481.94,277.79,482.77,289.88z M264.61,305.32c-0.21,12.47-0.57,24.6,3.78,36.56c3.98,10.94,10.64,20.09,17.19,29.41
		c8.19,11.66,19.71,18.55,32.92,23.14c7.25,2.52,14.95,2.63,22.23,4.43c8.51,2.1,15.2-1.3,21.22-5.48
		c7.91-5.5,15.22-11.75,24.56-14.85c1.4-0.46,2.59-1.55,4-2.44c-0.9-2.63-2.06-4.88-2.41-7.26c-1.2-8-5.73-13.67-12.52-17.34
		c-6.86-3.71-14.2-6.51-21.17-10.01c-19.43-9.76-39.57-17.6-60.32-24.11C284.11,314.24,274.65,309.48,264.61,305.32z M549.24,234.73
		c1.43-0.72,2.3-0.98,2.93-1.51c3.93-3.34,7.64-6.96,11.73-10.1c14.7-11.29,25.57-25.83,34.44-41.77
		c7.96-14.31,10.15-30.48,11.26-46.51c0.72-10.45-0.45-21.07-1.24-31.57c-0.47-6.23-1.86-12.39-2.99-19.6
		c-6.27,5.85-11.68,10.88-17.07,15.93c-1.81,1.7-3.43,3.62-5.38,5.13c-21.77,16.92-36.48,39.22-48.98,63.29
		C549.79,187.74,552.52,210.28,549.24,234.73z M223.4,368.53c3.81-2.74,6.67-3.14,9.95-2.11c11.5,3.6,23.03,7.07,34.57,10.53
		c2.78,0.84,5.63,1.47,8.45,2.2c0.23-0.41,0.46-0.81,0.68-1.22c-2.29-3.2-4.57-6.4-6.93-9.7c-18.05,2.19-34.02-3.74-49.21-11.68
		c-15.53-8.11-30.29-17.56-41.93-31.08c-3.34-3.88-6.51-7.87-12.6-7.66c-1.99,0.07-4.07-1.74-6.07-2.75
		c-16.07-8.19-32.14-16.4-49.05-25.03c1.1,6.62,1.79,12.35,3.02,17.96c3.35,15.28,9.19,29.61,19.62,41.39
		c19.68,22.2,43.66,37.96,72.95,44.08c6.8,1.42,14.42-1.07,21.65-1.79c0.14-0.01,0.24-0.36,0.47-0.72
		C227.15,383.59,225.28,376.1,223.4,368.53z M223.31,98.46c-6.15,11.59-12.36,23.23-18.51,34.9c-5.17,9.82-7.77,20.53-9.05,31.36
		c-1.77,15.04,0.74,29.35,9.37,42.43c5.54,8.4,12.65,15.16,19.74,22.04c1.04,1.01,2.36,1.71,4.01,2.88
		c0.9-7.31,1.22-14.01,2.63-20.47c3.95-18.2,14.87-32.36,27.49-45.36c3.4-3.5,4.42-3.17,7.96,0.79c3.68,4.12,7.78,7.6,14.02,9.16
		c-0.95-8.43-3.66-15.52-7.99-21.76c-9.48-13.66-19.61-26.83-32.1-37.99c-1.98-1.77-3.39-4.17-5.28-6.07
		C231.5,106.25,227.26,102.27,223.31,98.46z M548.15,339.69c-2.28-0.98-3.85-1.8-5.51-2.34c-13.2-4.26-26.55-5.21-40.34-2.93
		c-21.09,3.47-41.32,9.38-60.33,19.19c-7.87,4.06-14.56,9.81-21.55,15.55c3.72,0.57,7.19,0.53,10.6,0.07
		c6.47-0.88,12.94-1.64,19.26,0.59c9.51,3.36,11.66,7.33,7.81,16.54c-3.06,7.32-7.23,14.18-10.9,21.22
		c8.93-0.88,18.3-1.37,27.5-2.86c6.54-1.06,13.11-2.89,19.24-5.41c10.82-4.44,20.6-10.84,29.66-18.27c2.42-1.98,5.4-3.65,7.01-6.17
		c5.17-8.1,10.02-16.43,14.55-24.9C546.77,346.97,547.15,343.3,548.15,339.69z M704.43,244.85c-0.53-0.36-0.76-0.62-0.87-0.58
		c-1.45,0.55-2.92,1.06-4.31,1.73c-15.41,7.38-29.66,16.7-43.89,26.07c-2.91,1.92-6.38,3.9-9.7,4.1c-4.91,0.3-7.39,2.77-9.16,6.65
		c-5.5,12.04-14.41,21.57-23.05,31.28c-9.04,10.16-20.36,17.67-31.42,25.21c-7.41,5.05-15.55,9.98-25.23,10.35
		c-1.15,0.04-2.92,0.87-3.27,1.77c-1.38,3.57-2.31,7.32-3.62,11.71c3.61-0.58,6-0.91,8.37-1.35c10.93-2.05,22.02-3.51,32.75-6.33
		c15.66-4.12,30.06-11.55,44.16-19.34c16.51-9.12,31.57-19.95,43.32-35.3C691.45,283.89,697.99,264.43,704.43,244.85z M12.9,339.29
		c6.37,6.98,11.32,13.33,17.21,18.6c5.97,5.34,12.79,9.77,19.4,14.36c20.57,14.26,43.93,19.93,68.45,20.35
		c14.96,0.26,29.97-1.65,44.95-2.66c0.45-0.03,0.84-0.83,1.42-1.44c-3.22-2.4-6.21-4.75-9.32-6.93
		c-12.26-8.58-22.74-18.99-32.03-30.66c-1.67-2.09-3.35-3.85-6.55-4.13c-13.12-1.16-26.29-2.2-39.29-4.24
		c-19.13-3.01-38.31-4.23-57.63-3.77C17.78,338.81,16.05,339.04,12.9,339.29z M502.37,71.62c-1.39,1.71-2.6,3.02-3.61,4.47
		c-6.66,9.59-12.27,19.72-16.7,30.57c-5.5,13.45-11.7,26.61-17.24,40.04c-5.33,12.91-12.48,24.81-20.09,36.38
		c-2.38,3.61-2.94,6.8-2.72,10.6c0.4,6.92,0.87,13.83,1.35,20.74c0.08,1.21,0.38,2.4,0.71,4.4c1.72-1.37,2.94-2,3.66-2.98
		c5.97-8.09,12.51-15.86,17.6-24.49c7.97-13.5,14.92-27.6,22.33-41.43c1.48-2.76,2.66-5.86,4.77-8.03c1.65-1.7,4.81-3.46,6.81-3.02
		c6.54,1.45,12.9,3.84,17.75,8.88c2.77,2.89,5.42,5.9,8.12,8.85C534.91,137.95,521.6,87.02,502.37,71.62z M158.28,61.93
		c-0.89,3.01-1.64,4.89-1.99,6.85c-2.29,12.93-4.83,25.82-6.56,38.83c-0.83,6.19-0.39,12.61,0.04,18.88
		c0.45,6.65,1.88,13.24,2.28,19.89c0.2,3.38,1.17,5.78,3.38,8.35c7.74,8.98,15.11,18.29,22.68,27.42c1.77,2.14,3.8,4.06,5.87,6.25
		c0.73-10,1.16-19.18,2.12-28.29c1.05-9.84,3.92-19.19,8.99-27.79c4.77-8.1,9.62-16.16,14.18-24.38c2.15-3.87,1.58-5.44-1.65-8.13
		c-2.06-1.71-4.35-3.22-6.17-5.16c-9.88-10.57-21.4-19.08-33.46-26.92C165.03,65.81,161.92,64.09,158.28,61.93z M20.8,217.8
		c1.49,25.33,5.89,48.27,22.66,67.04c17.57,19.67,38.43,33.74,64.99,38.7c0.14-0.83,0.48-1.53,0.32-2.08
		c-3.73-12.27-6.1-24.7-5.4-37.63c0.08-1.53-0.99-3.34-1.99-4.68c-5.18-7.01-10.5-13.91-15.78-20.84c-2.32-3.04-4.89-5.41-8.74-6.92
		c-13.36-5.25-26.31-11.35-37.62-20.5C33.7,226.43,27.64,222.63,20.8,217.8z M557.49,340.69c6.58-3.6,13.7-6.48,19.61-10.97
		c12.26-9.3,25.17-17.75,35-30.16c7.87-9.93,15.02-20.22,20.02-31.69c6.14-14.1,11.07-28.72,16.3-43.2c0.82-2.28,0.44-5,0.67-8.35
		c-2.31,1.05-3.55,1.51-4.68,2.14c-7.03,3.95-14.11,7.82-21.03,11.94c-5.76,3.43-11.33,7.17-16.99,10.77
		c-5.77,3.67-11.53,7.35-16.85,10.73c0,4.26,0.01,8.91,0,13.57c-0.01,4.73,0.31,9.5-0.14,14.19c-0.44,4.63-1.41,9.25-2.6,13.75
		c-1.26,4.73-2.69,9.48-4.74,13.9c-1.96,4.23-4.63,8.17-7.31,12.01c-2.69,3.85-5.79,7.4-8.68,11.11
		C563.34,333.94,559,336.05,557.49,340.69z M587.29,242.41c1.59-0.94,2.98-1.66,4.26-2.55c6.26-4.34,12.26-9.08,18.77-13
		c8.82-5.32,18-10.06,27.07-14.97c3.36-1.82,6.76-3.57,10.27-5.07c4.83-2.06,6.69-1.09,8.49,3.87c1.92,5.25,1.17,10.49,0.37,15.85
		c-0.5,3.36-2.54,6.74-0.75,11.53c12.64-25.11,21.57-49.69,15.85-77.49c-0.72,0.25-1.7,0.32-2.31,0.83
		c-12.1,10.2-26.93,15.99-39.93,24.71c-7.81,5.24-15.6,10.52-23.22,16.03c-5.98,4.33-11.64,9.09-17.54,13.54
		c-2.49,1.88-5.45,3.16-7.8,5.18c-5.61,4.84-10.81,10.17-16.52,14.89c-3.76,3.1-7.8,6.3-12.27,8c-6.09,2.32-7.39,6.67-8.24,12.89
		c2.16-1.12,3.67-1.63,4.86-2.56c9-7.04,18.16-13.89,26.78-21.37c3.95-3.43,6.34-2.41,8.49,1.45
		C585.32,236.67,586.13,239.5,587.29,242.41z M290.89,182.68c0.45,0.01,0.9,0.01,1.35,0.02c0.23-1.17,0.48-2.34,0.7-3.52
		c0.82-4.37,1.29-8.84,2.49-13.1c4.97-17.58,13.82-33.02,26.39-46.26c2.66-2.81,2.87-5.27,1.05-8.43c-1.45-2.53-2.9-5.13-3.85-7.87
		c-4.08-11.81-13.3-19.54-21.85-27.78c-2.11-2.03-4.51-1.78-6.39,0.71c-4.72,6.26-9.49,12.48-14.13,18.79
		c-5.76,7.83-9.28,16.72-12.47,25.85c-1.22,3.49-1.03,6.04,0.9,8.73c2.88,4,5.67,8.1,8.88,11.83c8.57,9.96,13.05,21.77,16.06,34.29
		C290.54,178.13,290.61,180.43,290.89,182.68z M235.51,377.94c-0.51,0.44-1.02,0.88-1.53,1.32c3.03,6.65,5.43,13.69,9.28,19.83
		c3.28,5.24,8.13,9.52,12.45,14.07c12.73,13.39,28.96,18.89,46.85,20.27c12.63,0.97,24.44-2.1,35.5-8.16
		c1.17-0.64,2.78-1.17,3.27-2.2c2.07-4.34,3.8-8.84,5.87-13.79c-3.53,0-6.63-0.68-9.28,0.13c-7.88,2.4-15.22,0.33-22.14-2.7
		c-7.33-3.21-14.28-7.37-21.12-11.56c-4.81-2.94-9.53-5.57-15.23-6.6c-6.99-1.27-13.82-3.4-20.74-5.08
		C250.98,381.58,243.24,379.78,235.51,377.94z M448.68,382.92c-6.27-4.84-25.41-5.5-41.99-0.65c-26.26,7.68-48.89,20.21-59.04,47.92
		C369.86,440.67,427.72,426.69,448.68,382.92z M438.65,174.55c1.32-1.76,1.82-2.4,2.29-3.06c9.21-12.9,14.57-27.73,20.92-42.05
		c0.35-0.79,0.42-1.75,0.42-2.64c-0.03-12.1,0.65-24.25-2.77-36.08c-2.56-8.85-5.79-17.36-12.87-24.19
		c-2.04,2.15-4.35,3.82-5.66,6.08c-9.44,16.28-18.68,32.67-27.97,49.04c-1.78,3.13-1.23,5.76,1.13,8.59
		C424.83,143.04,434.13,156.67,438.65,174.55z M385.86,75.64c-0.1,0.05,0.62-0.12,1.06-0.57c1.87-1.88,3.68-3.84,5.49-5.78
		c4.62-4.95,4.63-5.48,1.7-11.81c-7.4-15.99-19.07-27.99-34.03-37.06c-2.41-1.46-3.85-1.11-5.97,0.36
		c-8.2,5.65-15.43,12.26-20.77,20.7c-7.27,11.5-14.37,23.1-21.48,34.56c4.04,4.91,7.86,9.57,11.41,13.88
		c4.12-4.16,8.06-8.84,12.71-12.66c4.97-4.09,10.55-7.45,15.96-10.97c3.38-2.19,7.1-2.3,10.77-0.73
		C370.27,68.79,377.8,72.12,385.86,75.64z M542.94,40.42c-7.78,13.33-14.85,25.44-22.29,38.17c11.28,17.06,16.11,36.96,17.45,58.29
		c4.2-4.42,7.69-8.17,11.27-11.84c2.99-3.07,6.26-5.88,9.04-9.11c1.34-1.56,2.48-3.81,2.6-5.82c0.59-10.11,0-20.08-3.69-29.76
		C552.41,67.42,547.93,54.32,542.94,40.42z M318.87,45.67c-12.04-7.91-23.93-15.71-36.43-23.92c-4.69,10.87-9.58,21.42-13.82,32.23
		c-4.4,11.23-6.95,22.96-8.42,35c-0.48,3.91-1.48,6.91,3.21,8.61c5.16-5.88,10.31-11.77,15.48-17.62
		c3.41-3.87,6.67-7.91,10.37-11.48c4.47-4.32,7.52-4.25,12.52-0.59c1.51,1.11,3.07,2.15,4.12,2.89
		C310.44,61.98,314.61,53.91,318.87,45.67z M259.06,105.68c-2.2-2.66-4.65-5.28-6.72-8.18c-5.71-8.02-11.44-16.05-16.82-24.29
		c-3.66-5.61-7.17-11.4-9.96-17.47c-2.75-5.98-4.52-12.4-6.91-19.16c-1.32,1.12-2.65,1.94-3.57,3.09
		c-6.18,7.67-12.29,15.4-18.37,23.15c-1.66,2.11-3.26,4.29-4.63,6.59c-1.27,2.14-0.96,3.78,1.25,5.73
		c5.91,5.21,11.36,10.93,17.04,16.4c1.37,1.32,2.9,2.47,4.99,4.23c2.11-4.54,3.82-8.23,5.89-12.7c6.04,6.71,11.21,12.72,16.67,18.44
		c5.72,5.99,11.72,11.72,17.74,17.71C256.88,114.37,257.95,110.12,259.06,105.68z M471.69,107.01c8.8-16.99,15.21-34.06,31.8-44.52
		c-5.15-14.13-10.17-27.91-15.1-41.43c-5.75,7.09-11,13.7-16.4,20.18c-5.01,6.02-10.13,11.96-15.3,17.85c-1.67,1.9-1.51,3.39,0,5.31
		c5.6,7.15,9.4,15.17,11.2,24.1C469.01,94.12,470.18,99.71,471.69,107.01z M428.99,75.41c2.84-3.11,5.12-5.53,7.29-8.04
		c0.7-0.81,1.54-1.88,1.56-2.84c0.11-5.61,1.02-11.48-0.26-16.8c-3.29-13.74-10.48-25.88-17.31-39.02
		c-11.11,7.18-18.97,16.37-25.15,27.04c-0.72,1.24,0.24,3.8,1.01,5.47c2.05,4.44,4.54,8.68,6.63,13.1c0.88,1.87,1.91,2.94,4.04,2.72
		c5.07-0.53,8.18,2.3,11.11,6.01C421.3,67.32,425.18,71.21,428.99,75.41z M403.85,118.56c4.08-4.57,4.07-5-0.04-9.58
		c-1.49-1.67-2.84-3.46-4.21-5.23c-9.33-12.03-19.88-22.55-34.14-28.81c-3.39-1.49-6.14-1.73-9.51-0.04
		c-10.24,5.12-18.44,12.74-26.26,20.83c-1.05,1.08-1.58,3.26-1.39,4.81c0.34,2.7,1.42,5.32,2.35,8.5
		c6.15-5.05,11.84-9.4,17.16-14.17c9.17-8.21,11.39-8.56,21.74-2.17c0.57,0.35,1.08,0.82,1.62,1.22
		C382.05,102.12,392.94,110.33,403.85,118.56z M409.4,63.44c-6.43,6.22-12.65,11.65-16.61,19.05c6.4,7.82,12.52,15.3,18.58,22.7
		c4.79-8.15,9.42-16.04,14.14-24.07C420.3,75.41,415.06,69.66,409.4,63.44z M640.32,346.44c0.17-0.11,0.35-0.22,0.52-0.33
		c-0.34-0.01-0.68-0.02-1.02-0.03C639.99,346.2,640.15,346.32,640.32,346.44z M418.27,370.2l-0.27,0.38l0.47,0.05L418.27,370.2z"/>
	<path class="st1" d="M612.51,415.89c3.18-0.9,6.36-1.8,9.54-2.7c0.77,18.52-1.11,36.91-2.92,55.3
		c-0.73,7.42-3.64,12.85-11.38,14.83c-2.16,0.55-4.14,2.09-6.3,2.37c-6.05,0.78-8.02,4.74-8.97,10.03
		c-2.73,15.05-5.46,30.1-8.45,45.1c-7.58,37.95-15.21,75.9-22.99,113.81c-4.12,20.05-8.62,40.03-12.92,60.04
		c-1.61,7.48-3.36,14.93-4.71,22.46c-2.08,11.65-7.9,19.86-18.82,25.37c-26.17,13.23-53.68,22.03-82.44,27.2
		c-9.52,1.71-18.97,4.19-28.57,5.04c-13.22,1.16-26.56,1.71-39.82,1.43c-19.15-0.4-38.36-1.03-57.4-3.01
		c-13.35-1.39-26.47-5.11-39.67-7.92c-22.34-4.74-43.59-12.94-64.78-21.18c-5.41-2.1-10.49-5.2-15.4-8.34
		c-2.11-1.35-3.77-3.77-5.04-6.03c-6.28-11.2-8-23.83-10.67-36.09c-7.47-34.29-14.85-68.61-21.72-103.03
		c-6.6-33.09-12.55-66.32-18.71-99.5c-1.15-6.19-2.14-12.43-2.73-18.69c-0.3-3.24-2.04-4.55-4.52-5.99
		c-7.59-4.4-15.03-9.07-22.52-13.63c-3.19-1.94-4.3-4.85-4.56-8.5c-1.29-18.42-2.69-36.83-4.15-55.24
		c-0.28-3.58-0.96-7.13-1.46-10.69c3.68,0.43,7.36,0.87,11.04,1.3c0.46,4.44,1.14,8.86,1.34,13.31c0.59,13.23,0.98,26.47,1.49,39.71
		c0.07,1.77,0.58,3.52,0.63,5.29c0.12,4.33,2.71,6.79,6.19,8.69c4.52,2.47,9,5.02,13.53,7.47c14.23,7.67,29.28,13.33,44.61,18.34
		c19.06,6.22,38.14,12.34,57.99,15.61c6.37,1.05,12.78,1.79,19.16,2.78c10.99,1.69,21.91,3.9,32.95,5.09
		c12.89,1.39,25.85,2.5,38.8,2.69c27.9,0.41,55.82,0.83,83.68-1.23c0.67-0.05,1.34-0.11,2.01-0.2c9.26-1.27,18.52-2.48,27.76-3.84
		c7.48-1.1,14.96-2.2,22.38-3.61c9.39-1.79,18.75-3.77,28.06-5.89c16.25-3.71,32.51-7.44,48.68-11.47
		c10.79-2.69,21.62-5.41,32.13-9.01c11.94-4.08,24.97-5.66,35.47-14.64C611,451.59,612.8,433.83,612.51,415.89z M150.82,495.77
		c-0.31-0.18-0.63-0.35-0.94-0.53c0.31,0.18,0.62,0.36,0.92,0.55c0.39,3.54,0.67,7.09,1.21,10.6c0.85,5.5,1.94,10.96,2.81,16.46
		c2.36,14.95,4.4,29.95,7.05,44.85c3.23,18.16,7.12,36.2,10.44,54.34c3.44,18.82,6.04,37.81,9.94,56.54
		c4.4,21.13,9.34,42.16,16.63,62.56c1.24,3.48,2.92,5.84,6.26,7.26c12.96,5.53,25.61,11.92,38.9,16.48
		c14.71,5.04,30.02,8.34,45.02,12.56c15.56,4.38,31.35,7.03,47.56,6.81c0.9-0.01,1.8,0.08,2.69,0.18c7.31,0.8,14.59,2.08,21.92,2.33
		c16.6,0.58,33.19-0.04,49.65-2.52c7.7-1.16,15.5-1.89,23.08-3.57c13.9-3.07,27.79-6.3,41.47-10.21
		c15.94-4.55,31.31-10.75,45.93-18.63c4.2-2.27,8.01-5.48,9.4-10.17c2.33-7.88,4.14-15.92,5.92-23.95
		c3.46-15.63,6.77-31.29,10.09-46.96c4.79-22.62,9.68-45.22,14.25-67.89c3.47-17.22,6.39-34.56,9.77-51.8
		c3.83-19.55,7.88-39.06,11.99-59.32c-1.62,0.46-2.4,0.67-3.17,0.89c-13.06,3.76-26.02,7.89-39.19,11.18
		c-18.98,4.74-38.06,9.14-57.21,13.18c-13.49,2.84-27.12,5.02-40.75,7.17c-8.14,1.28-16.38,2.02-24.59,2.86
		c-9.32,0.96-18.65,1.99-28,2.54c-7.42,0.43-14.89,0.05-22.33,0.27c-5.81,0.17-11.61,1.06-17.4,0.98
		c-8.74-0.11-17.47-0.79-26.2-1.21c-1.58-0.08-3.16,0.02-4.73-0.12c-10.01-0.83-20.03-1.66-30.04-2.59
		c-5.33-0.49-10.65-1.09-15.96-1.8c-8.38-1.12-16.75-2.38-25.11-3.59c-7.49-1.08-15.08-1.72-22.45-3.36
		c-22.43-5-44.29-12-65.94-19.65C156.78,497.47,153.78,496.67,150.82,495.77z"/>
	<path class="st2" d="M612.51,415.89c0.29,17.94-1.51,35.7-4.17,52.86c-10.49,8.98-23.52,10.55-35.47,14.64
		c-10.51,3.59-21.34,6.32-32.13,9.01c-16.18,4.03-32.43,7.76-48.68,11.47c-9.32,2.13-18.68,4.11-28.06,5.89
		c-7.42,1.41-14.91,2.52-22.38,3.61c-9.24,1.36-18.51,2.57-27.76,3.84c-0.67,0.09-1.34,0.15-2.01,0.2
		c-27.87,2.06-55.79,1.64-83.68,1.23c-12.95-0.19-25.92-1.31-38.8-2.69c-11.04-1.19-21.96-3.4-32.95-5.09
		c-6.38-0.98-12.79-1.73-19.16-2.78c-19.85-3.27-38.93-9.39-57.99-15.61c-15.33-5-30.38-10.67-44.61-18.34
		c-4.53-2.44-9.01-4.99-13.53-7.47c-3.48-1.9-6.07-4.36-6.19-8.69c-0.05-1.77-0.56-3.52-0.63-5.29c-0.52-13.23-0.9-26.47-1.49-39.71
		c-0.2-4.45-0.88-8.88-1.34-13.31c4.23,0,8.46-0.15,12.68,0.04c2.15,0.1,4.27,0.8,6.4,1.23c7.21,2.28,14.31,4.98,21.64,6.74
		c15.3,3.69,30.74,6.81,46.09,10.31c17.82,4.07,35.85,6.56,54.1,7.49c7.82,4.08,15.48,8.51,23.5,12.13
		c7.95,3.59,16.49,5.49,25.27,5.3c7.59-0.16,15.28-0.18,22.7-1.5c5.13-0.91,9.89-3.94,15.4-6.26c5.79,3.69,12.7,5.49,20.3,5.23
		c4.18-0.14,8.42,1.19,12.6,1.07c6.44-0.2,12.93-0.67,19.27-1.78c8.3-1.45,16.56-3.32,24.22-7.16c1.3-0.65,3.09-0.32,4.65-0.45
		c3.53-0.42,7.06-1.01,10.6-1.22c9.84-0.57,19.7-0.98,29.54-1.45c0.67-0.03,1.35-0.07,2.02-0.15c7.07-0.83,14.14-1.63,21.21-2.52
		c9.27-1.16,18.53-2.39,27.8-3.59c8.39-1.09,16.78-2.17,25.17-3.26c2.16-0.39,4.45-1.45,6.47-1.07c13.64,2.6,27.39,1.1,41.05,0.9
		C593.62,419.56,603.06,417.24,612.51,415.89z"/>
	<path class="st3" d="M431.07,203.38c-1.05-0.75-2.03-1.66-3.17-2.23c-2.3-1.14-4.51-0.85-5.89,1.45
		c-8.14,13.61-20.42,23.77-30.15,36.09c-7.91,10.02-17.89,18.41-26.98,27.49c-0.4,0.4-1.15,0.46-2.23,0.86
		c-0.44-2.84-0.77-5.41-1.24-7.95c-2.8-15.4-10.76-28.2-19.97-40.5c-7.83-10.46-17.29-18.78-29-24.55c-0.4-0.2-0.85-0.32-1.23-0.55
		c-6.32-3.76-6.27-3.75-4.69-10.84c1.16-5.22,2.07-10.49,3.28-15.69c4.04-17.4,12.61-32.45,24.14-45.92
		c6.12-7.15,12.37-14.2,18.56-21.3c2.35-2.69,4.79-2.9,7.62-0.61c11.48,9.31,23.58,17.94,34.37,27.99
		c14.44,13.45,25.19,29.71,31.28,48.71c2.25,7,4.25,14.09,6.19,21.18c0.51,1.86,0.38,3.89,0.55,5.84
		C432.02,203.01,431.55,203.19,431.07,203.38z"/>
	<path class="st3" d="M399.46,374.9c-0.96-3.39-1.67-5.66-2.23-7.96c-2.75-11.3-8.86-20.06-19.53-25.11
		c-9.51-4.5-19.16-8.7-28.94-13.12c0-2.73-0.77-5.68,0.13-7.98c4.3-11.01,6.93-22.83,14.09-32.53c3.41-4.62,7.6-8.68,11.51-12.93
		c5.32-5.79,10.43-11.81,16.11-17.22c11.78-11.21,21.11-24.44,31.25-36.99c1.8-2.23,2.86-5.06,4.37-7.81
		c4.89,5.55,9.88,10.89,14.49,16.54c6.94,8.5,14.02,16.94,20.26,25.94c5.51,7.95,8.39,17.01,9.66,26.86
		c2.67,20.69-3.77,38.31-16.36,54.12c-1.78,2.23-4.95,3.67-7.77,4.7c-15.43,5.62-28.63,14.69-40.51,25.81
		C403.8,369.27,402.07,371.79,399.46,374.9z"/>
	<path class="st3" d="M262.31,172.38c12.31,12.07,26.93,17.8,39.93,26.07c6.99,4.45,13.89,9.06,20.55,13.97
		c2.45,1.81,4.18,4.64,6.12,7.11c8.6,10.97,16.85,22.12,20.98,35.74c2.31,7.61,3.24,15.36,2.58,23.24
		c-0.18,2.12-1.29,4.22-2.18,6.23c-2.36,5.3-4.98,10.49-7.23,15.83c-2.86,6.78-5.47,13.66-8.42,21.08
		c-19.82-7.62-38.99-14.94-58.1-22.43c-1.52-0.6-3.22-2.16-3.73-3.65c-3.03-8.89-10.01-14.89-15.82-21.62
		c-13.77-15.96-17.04-34.19-14.55-54.55c1.3-10.66,3.82-20.69,8.8-30.03C254.27,183.69,258.26,178.52,262.31,172.38z"/>
	<path class="st3" d="M160.82,207.1c6.27,0.49,10.97,3.77,15.71,6.53c16.26,9.45,32.33,19.24,48.5,28.86
		c3.2,1.9,5.25,4.09,6.05,8.19c2.61,13.29,9.33,24.57,18.46,34.49c2.42,2.63,4.54,5.53,7,8.56c-2.88,4.76-3.49,9.72-1.81,15.3
		c1,3.32,0.49,7.17,0.25,10.76c-0.64,9.82,1.25,19.15,4.76,28.26c0.93,2.42,1.56,4.95,2.61,8.38c-9.77-0.87-18.52-1.8-26.71-5.67
		c-12.2-5.75-24.15-12.05-34.79-20.32c-9.6-7.46-18.19-16.21-24.22-26.89c-8.28-14.67-14.52-30.32-18.49-46.67
		c-2.53-10.44-3.19-21.22-0.85-31.98c0.85-3.91,1-7.97,1.68-11.93C159.31,211.06,160.14,209.23,160.82,207.1z"/>
	<path class="st3" d="M482.77,289.88c-0.84-12.09-2.74-23.74-8.68-33.81c-5.86-9.94-13.31-18.96-20.19-28.55
		c20.5-21.97,32.68-48.67,44.76-75.63c4.99-0.71,8.92,2.44,11.5,5.63c7.59,9.36,16.22,18.02,21.59,29.05
		c5.39,11.05,8.36,22.64,7.62,35.02c-0.78,13.09-3.06,25.9-10.14,37.14c-5.25,8.33-11.63,15.78-20.55,20.79
		C500.69,284.01,493.02,289.02,482.77,289.88z"/>
	<path class="st3" d="M264.61,305.32c10.04,4.16,19.5,8.92,29.47,12.05c20.75,6.51,40.89,14.36,60.32,24.11
		c6.98,3.5,14.32,6.31,21.17,10.01c6.79,3.67,11.32,9.34,12.52,17.34c0.36,2.37,1.51,4.62,2.41,7.26c-1.42,0.88-2.6,1.97-4,2.44
		c-9.34,3.1-16.65,9.35-24.56,14.85c-6.01,4.18-12.7,7.58-21.22,5.48c-7.28-1.8-14.97-1.91-22.23-4.43
		c-13.21-4.59-24.73-11.48-32.92-23.14c-6.55-9.32-13.21-18.47-17.19-29.41C264.04,329.92,264.4,317.78,264.61,305.32z"/>
	<path class="st3" d="M701.93,341.45c-3.74,5.21-7.21,10.64-11.3,15.56c-2.69,3.24-6.42,5.6-9.43,8.62
		c-16.42,16.47-35.64,28.83-57.32,36.78c-10.12,3.71-21.18,5.29-31.97,6.57c-11.11,1.31-22.4,1.16-33.61,1.5
		c-14.41,0.44-28.45-2.41-42.53-4.95c-1.75-0.32-3.54-0.45-5.97-0.75c13.51-9.36,27.99-16.93,35.67-32.21
		c14.62,0.63,28.61-2.26,42.56-5.44c10.3-2.35,19.91-6.6,29.59-10.67c1.87-0.79,4.21-0.47,6.33-0.61
		c5.56-0.34,11.15-0.36,16.66-1.04c8.39-1.04,16.79-2.25,25.08-3.9c7.42-1.47,14.72-3.57,22.04-5.49c4.74-1.25,9.43-2.68,14.14-4.04
		C701.88,341.39,701.93,341.45,701.93,341.45z"/>
	<path class="st3" d="M549.24,234.73c3.28-24.45,0.55-46.99-15.32-66.7c12.5-24.07,27.22-46.38,48.98-63.29
		c1.95-1.51,3.57-3.44,5.38-5.13c5.39-5.05,10.8-10.08,17.07-15.93c1.14,7.21,2.52,13.37,2.99,19.6
		c0.79,10.51,1.96,21.12,1.24,31.57c-1.1,16.03-3.3,32.19-11.26,46.51c-8.87,15.95-19.74,30.48-34.44,41.77
		c-4.08,3.14-7.8,6.75-11.73,10.1C551.54,233.75,550.67,234.01,549.24,234.73z"/>
	<path class="st3" d="M164.22,307.72c-2.91-1.08-5.93-1.93-8.7-3.29c-3.82-1.87-7.27-4.57-11.19-6.13
		c-15.29-6.06-26.69-16.66-37.1-29.13c-16.66-19.97-29.75-41.78-39.41-65.94c-4.58-11.47-8.33-23.04-11.05-35.02
		c-0.83-3.66-1.33-7.39-2.06-11.49c9.88,3.76,17.74,10.19,25.74,16.29c8.88,6.77,17.53,13.84,26.08,21.02
		c4.62,3.88,9.48,7.66,11.95,13.52c0.34,0.81,0.99,1.49,1.55,2.19c7.57,9.4,15.19,18.75,22.68,28.2c1.17,1.48,2.54,3.37,2.59,5.1
		c0.56,20.43,8.86,38.56,16.53,56.9c1.02,2.44,1.79,4.99,2.68,7.49L164.22,307.72z"/>
	<path class="st3" d="M223.4,368.53c1.89,7.57,3.75,15.07,5.59,22.42c-0.23,0.36-0.33,0.7-0.47,0.72
		c-7.24,0.72-14.86,3.21-21.65,1.79c-29.29-6.12-53.27-21.88-72.95-44.08c-10.44-11.77-16.27-26.1-19.62-41.39
		c-1.23-5.61-1.93-11.34-3.02-17.96c16.91,8.63,32.98,16.84,49.05,25.03c2,1.02,4.08,2.82,6.07,2.75c6.09-0.21,9.26,3.78,12.6,7.66
		c11.64,13.52,26.4,22.97,41.93,31.08c15.19,7.94,31.16,13.87,49.21,11.68c2.36,3.3,4.64,6.5,6.93,9.7
		c-0.23,0.41-0.46,0.81-0.68,1.22c-2.82-0.73-5.66-1.36-8.45-2.2c-11.54-3.47-23.07-6.94-34.57-10.53
		C230.06,365.39,227.21,365.79,223.4,368.53z"/>
	<path class="st3" d="M223.31,98.46c3.96,3.82,8.19,7.79,12.28,11.9c1.89,1.9,3.3,4.3,5.28,6.07c12.49,11.16,22.62,24.32,32.1,37.99
		c4.33,6.24,7.04,13.32,7.99,21.76c-6.24-1.55-10.34-5.04-14.02-9.16c-3.54-3.96-4.56-4.29-7.96-0.79
		c-12.62,13-23.55,27.16-27.49,45.36c-1.4,6.47-1.72,13.17-2.63,20.47c-1.64-1.16-2.97-1.87-4.01-2.88
		c-7.09-6.88-14.2-13.64-19.74-22.04c-8.63-13.08-11.13-27.39-9.37-42.43c1.27-10.83,3.87-21.54,9.05-31.36
		C210.94,121.68,217.16,110.04,223.31,98.46z"/>
	<path class="st3" d="M548.15,339.69c-1,3.6-1.38,7.28-2.99,10.29c-4.54,8.47-9.39,16.8-14.55,24.9c-1.61,2.52-4.59,4.19-7.01,6.17
		c-9.06,7.42-18.84,13.82-29.66,18.27c-6.13,2.52-12.7,4.35-19.24,5.41c-9.2,1.49-18.57,1.98-27.5,2.86
		c3.67-7.04,7.85-13.9,10.9-21.22c3.85-9.22,1.7-13.18-7.81-16.54c-6.32-2.23-12.79-1.47-19.26-0.59c-3.41,0.46-6.88,0.5-10.6-0.07
		c6.98-5.74,13.68-11.49,21.55-15.55c19.01-9.81,39.25-15.72,60.33-19.19c13.79-2.27,27.14-1.33,40.34,2.93
		C544.3,337.89,545.87,338.72,548.15,339.69z"/>
	<path class="st3" d="M704.43,244.85c-6.44,19.59-12.99,39.05-25.92,55.95c-11.75,15.36-26.81,26.18-43.32,35.3
		c-14.1,7.79-28.51,15.22-44.16,19.34c-10.73,2.82-21.82,4.29-32.75,6.33c-2.37,0.44-4.76,0.77-8.37,1.35
		c1.31-4.38,2.24-8.13,3.62-11.71c0.35-0.9,2.12-1.73,3.27-1.77c9.69-0.37,17.83-5.3,25.23-10.35
		c11.06-7.54,22.38-15.06,31.42-25.21c8.64-9.71,17.55-19.23,23.05-31.28c1.77-3.88,4.25-6.34,9.16-6.65c3.32-0.2,6.78-2.18,9.7-4.1
		c14.23-9.38,28.48-18.7,43.89-26.07c1.39-0.67,2.86-1.18,4.31-1.73C703.67,244.22,703.9,244.48,704.43,244.85z"/>
	<path class="st3" d="M471.68,331.91c2.11-4.65,4.33-9.25,6.26-13.97c0.92-2.25,1.51-4.69,1.84-7.1c0.53-3.91,2.63-6.51,5.96-8.28
		c2.78-1.47,5.48-3.23,8.43-4.21c11.03-3.66,20.03-10.88,29.82-16.7c5.96-3.55,12.25-6.71,17.66-10.97
		c9.85-7.77,19.13-16.25,28.68-24.41c1.74-1.48,3.59-2.83,5.86-4.61c9.04,35.42,1.66,65.23-24.6,89.62
		c-6.91-1.7-14.16-4.32-21.61-5.11c-8.85-0.94-17.96-1.14-26.8-0.16c-10.57,1.17-20.96,3.91-31.44,5.97L471.68,331.91z"/>
	<path class="st3" d="M12.9,339.29c3.16-0.26,4.89-0.49,6.62-0.53c19.32-0.46,38.5,0.76,57.63,3.77c13,2.04,26.17,3.08,39.29,4.24
		c3.19,0.28,4.88,2.04,6.55,4.13c9.29,11.67,19.78,22.08,32.03,30.66c3.11,2.18,6.1,4.53,9.32,6.93c-0.58,0.61-0.98,1.41-1.42,1.44
		c-14.98,1-29.98,2.91-44.95,2.66c-24.52-0.42-47.88-6.09-68.45-20.35c-6.61-4.59-13.43-9.01-19.4-14.36
		C24.21,352.62,19.27,346.28,12.9,339.29z"/>
	<path class="st3" d="M502.37,71.62c19.23,15.4,32.54,66.33,22.74,84.99c-2.7-2.95-5.35-5.96-8.12-8.85
		c-4.85-5.05-11.21-7.44-17.75-8.88c-2.01-0.44-5.16,1.32-6.81,3.02c-2.11,2.17-3.3,5.27-4.77,8.03
		c-7.41,13.83-14.36,27.93-22.33,41.43c-5.09,8.62-11.63,16.39-17.6,24.49c-0.73,0.99-1.95,1.61-3.66,2.98
		c-0.33-2-0.62-3.19-0.71-4.4c-0.48-6.91-0.95-13.83-1.35-20.74c-0.22-3.8,0.35-6.99,2.72-10.6c7.61-11.57,14.76-23.47,20.09-36.38
		c5.55-13.43,11.75-26.59,17.24-40.04c4.44-10.85,10.04-20.98,16.7-30.57C499.77,74.64,500.98,73.33,502.37,71.62z"/>
	<path class="st3" d="M158.28,61.93c3.64,2.17,6.74,3.88,9.71,5.81c12.06,7.84,23.58,16.35,33.46,26.92
		c1.82,1.94,4.1,3.45,6.17,5.16c3.23,2.68,3.8,4.25,1.65,8.13c-4.56,8.22-9.41,16.28-14.18,24.38c-5.07,8.6-7.94,17.95-8.99,27.79
		c-0.97,9.12-1.4,18.29-2.12,28.29c-2.07-2.19-4.1-4.11-5.87-6.25c-7.57-9.13-14.94-18.44-22.68-27.42
		c-2.22-2.57-3.18-4.98-3.38-8.35c-0.4-6.65-1.82-13.24-2.28-19.89c-0.43-6.28-0.87-12.7-0.04-18.88c1.74-13,4.28-25.9,6.56-38.83
		C156.64,66.82,157.39,64.94,158.28,61.93z"/>
	<path class="st3" d="M20.8,217.8c6.85,4.83,12.91,8.63,18.43,13.1c11.32,9.15,24.26,15.25,37.62,20.5
		c3.85,1.51,6.42,3.87,8.74,6.92c5.28,6.93,10.6,13.83,15.78,20.84c0.99,1.34,2.07,3.15,1.99,4.68c-0.7,12.92,1.67,25.36,5.4,37.63
		c0.17,0.54-0.18,1.24-0.32,2.08c-26.55-4.96-47.41-19.03-64.99-38.7C26.68,266.07,22.29,243.13,20.8,217.8z"/>
	<path class="st3" d="M557.49,340.69c1.51-4.64,5.85-6.75,8.58-10.25c2.89-3.71,5.99-7.26,8.68-11.11
		c2.68-3.84,5.36-7.78,7.31-12.01c2.05-4.42,3.48-9.18,4.74-13.9c1.2-4.5,2.16-9.12,2.6-13.75c0.45-4.69,0.13-9.45,0.14-14.19
		c0.01-4.65,0-9.3,0-13.57c5.32-3.39,11.09-7.06,16.85-10.73c5.66-3.6,11.23-7.35,16.99-10.77c6.93-4.12,14-7.99,21.03-11.94
		c1.13-0.64,2.37-1.09,4.68-2.14c-0.23,3.35,0.15,6.07-0.67,8.35c-5.22,14.48-10.16,29.11-16.3,43.2
		c-5,11.47-12.15,21.75-20.02,31.69c-9.83,12.42-22.74,20.87-35,30.16C571.19,334.21,564.07,337.09,557.49,340.69z"/>
	<path class="st3" d="M587.29,242.41c-1.16-2.91-1.97-5.73-3.36-8.24c-2.15-3.87-4.54-4.89-8.49-1.45
		c-8.62,7.48-17.78,14.33-26.78,21.37c-1.19,0.93-2.71,1.44-4.86,2.56c0.85-6.22,2.15-10.57,8.24-12.89c4.47-1.7,8.51-4.89,12.27-8
		c5.71-4.72,10.9-10.05,16.52-14.89c2.34-2.02,5.31-3.31,7.8-5.18c5.9-4.44,11.56-9.21,17.54-13.54
		c7.62-5.51,15.41-10.8,23.22-16.03c13.01-8.72,27.83-14.51,39.93-24.71c0.61-0.51,1.59-0.59,2.31-0.83
		c5.72,27.8-3.21,52.38-15.85,77.49c-1.79-4.78,0.25-8.17,0.75-11.53c0.8-5.36,1.55-10.59-0.37-15.85
		c-1.81-4.96-3.66-5.92-8.49-3.87c-3.51,1.49-6.92,3.25-10.27,5.07c-9.07,4.91-18.24,9.65-27.07,14.97
		c-6.5,3.92-12.51,8.66-18.77,13C590.27,240.74,588.88,241.46,587.29,242.41z"/>
	<path class="st3" d="M290.89,182.68c-0.28-2.25-0.35-4.55-0.88-6.74c-3.01-12.52-7.49-24.33-16.06-34.29
		c-3.21-3.73-6-7.83-8.88-11.83c-1.93-2.69-2.12-5.23-0.9-8.73c3.19-9.14,6.71-18.02,12.47-25.85c4.65-6.31,9.42-12.53,14.13-18.79
		c1.88-2.49,4.28-2.74,6.39-0.71c8.55,8.24,17.77,15.97,21.85,27.78c0.95,2.74,2.4,5.34,3.85,7.87c1.82,3.16,1.62,5.62-1.05,8.43
		c-12.56,13.24-21.42,28.68-26.39,46.26c-1.2,4.26-1.68,8.73-2.49,13.1c-0.22,1.18-0.46,2.35-0.7,3.52
		C291.8,182.69,291.35,182.69,290.89,182.68z"/>
	<path class="st3" d="M235.51,377.94c7.73,1.84,15.47,3.64,23.19,5.52c6.92,1.69,13.75,3.81,20.74,5.08
		c5.7,1.04,10.41,3.66,15.23,6.6c6.84,4.19,13.79,8.35,21.12,11.56c6.92,3.03,14.25,5.09,22.14,2.7c2.65-0.81,5.75-0.13,9.28-0.13
		c-2.07,4.95-3.79,9.45-5.87,13.79c-0.49,1.02-2.11,1.56-3.27,2.2c-11.06,6.07-22.88,9.14-35.5,8.16
		c-17.9-1.38-34.13-6.88-46.85-20.27c-4.32-4.55-9.17-8.83-12.45-14.07c-3.85-6.14-6.25-13.18-9.28-19.83
		C234.49,378.81,235,378.38,235.51,377.94z"/>
	<path class="st3" d="M448.68,382.92c-20.97,43.77-78.83,57.75-101.03,47.27c10.15-27.71,32.78-40.24,59.04-47.92
		C423.27,377.42,442.41,378.08,448.68,382.92z"/>
	<path class="st3" d="M438.65,174.55c-4.52-17.88-13.82-31.52-24.51-44.31c-2.36-2.82-2.91-5.45-1.13-8.59
		c9.29-16.36,18.53-32.76,27.97-49.04c1.31-2.26,3.62-3.94,5.66-6.08c7.07,6.83,10.31,15.34,12.87,24.19
		c3.42,11.83,2.75,23.99,2.77,36.08c0,0.88-0.07,1.85-0.42,2.64c-6.35,14.33-11.71,29.15-20.92,42.05
		C440.47,172.15,439.97,172.79,438.65,174.55z"/>
	<path class="st3" d="M385.86,75.64c-8.06-3.52-15.59-6.85-23.16-10.08c-3.67-1.57-7.4-1.46-10.77,0.73
		c-5.42,3.52-10.99,6.88-15.96,10.97c-4.65,3.82-8.59,8.5-12.71,12.66c-3.54-4.31-7.37-8.96-11.41-13.88
		c7.11-11.46,14.21-23.07,21.48-34.56c5.34-8.45,12.57-15.05,20.77-20.7c2.12-1.46,3.55-1.82,5.97-0.36
		c14.97,9.07,26.63,21.08,34.03,37.06c2.93,6.33,2.91,6.85-1.7,11.81c-1.81,1.94-3.61,3.9-5.49,5.78
		C386.48,75.51,385.77,75.69,385.86,75.64z"/>
	<path class="st3" d="M192.74,211.48c-3.82-1.82-7.63-3.62-11.45-5.45c-5.25-2.51-10.34-5.43-15.78-7.44
		c-6.76-2.49-10.09-1.08-13.05,5.48c-2.55,5.65-4.29,11.65-6.5,17.8c-28.16-24.03-33.67-54.18-24.46-89.21
		c1.53,1.02,2.71,1.56,3.58,2.42c15.28,14.94,29.53,30.79,42.67,47.67c5.8,7.45,11.85,14.77,19.96,19.87
		c3.41,2.15,5.11,4.85,5.11,8.77L192.74,211.48z"/>
	<path class="st3" d="M108.86,184.32c-1.39-1.11-2.64-2.51-4.2-3.27c-10.96-5.36-12.65-15.94-14.72-26.19
		c-2.77-13.7-3.45-27.61-2.65-41.52c0.37-6.4,1.91-12.74,3.01-19.68c10.84,3.62,22.05,5.61,31.3,12.01
		c10.2,7.05,17.98,16.19,18.38,29.6c0.01,0.41-0.3,0.82-0.67,1.77c-1.31-0.9-2.61-1.59-3.68-2.56c-2.67-2.43-5.03-5.22-7.86-7.43
		c-4.78-3.75-9.25-2.95-11.65,2.42c-6.83,15.34-11.08,31.15-7.51,48.18c0.45,2.16,0.13,4.49,0.17,6.74L108.86,184.32z"/>
	<path class="st3" d="M542.94,40.42c4.99,13.9,9.47,27,14.39,39.93c3.68,9.68,4.28,19.65,3.69,29.76c-0.12,2.01-1.26,4.26-2.6,5.82
		c-2.78,3.24-6.05,6.05-9.04,9.11c-3.58,3.67-7.07,7.42-11.27,11.84c-1.34-21.33-6.17-41.22-17.45-58.29
		C528.09,65.86,535.16,53.74,542.94,40.42z"/>
	<path class="st3" d="M318.87,45.67c-4.26,8.24-8.43,16.31-12.97,25.1c-1.06-0.74-2.61-1.79-4.12-2.89c-5-3.66-8.05-3.73-12.52,0.59
		c-3.7,3.57-6.95,7.62-10.37,11.48c-5.17,5.86-10.31,11.74-15.48,17.62c-4.69-1.7-3.69-4.7-3.21-8.61c1.47-12.03,4.01-23.76,8.42-35
		c4.24-10.81,9.13-21.36,13.82-32.23C294.94,29.96,306.82,37.76,318.87,45.67z"/>
	<path class="st3" d="M259.06,105.68c-1.11,4.44-2.18,8.69-3.39,13.54c-6.02-5.99-12.02-11.71-17.74-17.71
		c-5.46-5.73-10.63-11.74-16.67-18.44c-2.07,4.47-3.78,8.15-5.89,12.7c-2.09-1.76-3.63-2.91-4.99-4.23
		c-5.68-5.47-11.13-11.19-17.04-16.4c-2.21-1.95-2.52-3.59-1.25-5.73c1.37-2.3,2.97-4.48,4.63-6.59
		c6.08-7.75,12.19-15.47,18.37-23.15c0.92-1.15,2.25-1.97,3.57-3.09c2.39,6.76,4.16,13.18,6.91,19.16
		c2.8,6.07,6.31,11.86,9.96,17.47c5.38,8.25,11.11,16.27,16.82,24.29C254.41,100.4,256.86,103.02,259.06,105.68z"/>
	<path class="st3" d="M471.69,107.01c-1.51-7.3-2.68-12.89-3.81-18.49c-1.8-8.94-5.61-16.95-11.2-24.1c-1.51-1.93-1.66-3.41,0-5.31
		c5.17-5.89,10.29-11.83,15.3-17.85c5.4-6.49,10.65-13.1,16.4-20.18c4.93,13.52,9.95,27.29,15.1,41.43
		C486.9,72.95,480.49,90.02,471.69,107.01z"/>
	<path class="st3" d="M428.99,75.41c-3.81-4.21-7.69-8.09-11.08-12.36c-2.94-3.7-6.04-6.54-11.11-6.01
		c-2.13,0.22-3.16-0.85-4.04-2.72c-2.09-4.42-4.58-8.66-6.63-13.1c-0.77-1.67-1.72-4.23-1.01-5.47
		c6.18-10.67,14.05-19.86,25.15-27.04c6.83,13.13,14.01,25.28,17.31,39.02c1.28,5.32,0.36,11.19,0.26,16.8
		c-0.02,0.96-0.86,2.03-1.56,2.84C434.11,69.89,431.83,72.3,428.99,75.41z"/>
	<path class="st1" d="M252.38,425.48c-18.25-0.93-36.28-3.42-54.1-7.49c-15.35-3.51-30.79-6.62-46.09-10.31
		c-7.33-1.77-14.43-4.47-21.64-6.74c0.49-0.41,0.94-1.14,1.47-1.2c9.73-0.99,19.47-1.89,29.21-2.83c0.88-0.08,1.83-0.1,2.62-0.45
		c7.87-3.47,14.86-0.88,22.18,2.35c11.4,5.03,23.27,9.01,35.96,8.84c4.13-0.06,8.25-1.34,12.85-2.14
		C240.41,411.85,246.4,418.67,252.38,425.48z"/>
	<path class="st1" d="M536.64,419.87c-8.39,1.09-16.78,2.17-25.17,3.26c-9.27,1.2-18.53,2.43-27.8,3.59
		c-7.06,0.89-14.14,1.69-21.21,2.52c-0.67,0.08-1.35,0.12-2.02,0.15c-9.85,0.48-19.7,0.88-29.54,1.45c-3.55,0.21-7.07,0.8-10.6,1.22
		c0.29-0.8,0.34-1.9,0.9-2.35c5.21-4.16,10.43-8.33,15.86-12.19c1.43-1.01,3.73-1.53,5.46-1.24c10,1.63,19.99,1.8,29.9-0.13
		c8.67-1.69,17.19-4.09,25.82-5.99c1.53-0.34,3.48-0.18,4.88,0.5c7.89,3.85,16.17,5.93,24.9,6.69
		C530.95,417.6,533.77,419,536.64,419.87z"/>
	<path class="st3" d="M403.85,118.56c-10.92-8.23-21.8-16.44-32.68-24.65c-0.54-0.41-1.04-0.87-1.62-1.22
		c-10.35-6.39-12.58-6.04-21.74,2.17c-5.32,4.76-11.01,9.11-17.16,14.17c-0.93-3.19-2.01-5.8-2.35-8.5
		c-0.19-1.55,0.34-3.73,1.39-4.81c7.82-8.09,16.03-15.71,26.26-20.83c3.37-1.69,6.12-1.45,9.51,0.04
		c14.26,6.27,24.8,16.79,34.14,28.81c1.37,1.77,2.72,3.56,4.21,5.23C407.92,113.56,407.93,113.99,403.85,118.56z"/>
	<path class="st3" d="M409.4,63.44c5.67,6.22,10.9,11.97,16.11,17.68c-4.72,8.03-9.35,15.92-14.14,24.07
		c-6.06-7.4-12.18-14.88-18.58-22.7C396.75,75.09,402.97,69.66,409.4,63.44z"/>
	<path class="st4" d="M114.81,338.16c0.18,0.47,0.35,0.94,0.53,1.41c-0.5-0.15-0.99-0.3-1.49-0.45
		C114.17,338.81,114.49,338.48,114.81,338.16z"/>
	<path class="st3" d="M701.88,341.39c0.22-0.31,0.44-0.62,0.65-0.93c-0.2,0.33-0.4,0.66-0.6,0.99
		C701.93,341.45,701.88,341.39,701.88,341.39z"/>
	<path class="st3" d="M192.84,211.39c0.32,0.2,0.65,0.4,0.97,0.6c-0.35-0.17-0.71-0.34-1.06-0.51L192.84,211.39z"/>
	<path class="st4" d="M640.32,346.44c-0.17-0.12-0.33-0.24-0.5-0.36c0.34,0.01,0.68,0.02,1.02,0.03
		C640.67,346.22,640.5,346.33,640.32,346.44z"/>
	<path class="st3" d="M108.8,184.38c0.31,0.16,0.63,0.31,0.94,0.47c-0.29-0.18-0.58-0.35-0.88-0.53L108.8,184.38z"/>
	<polygon class="st3" points="418.27,370.2 418.47,370.63 418,370.58 	"/>
	<path class="st3" d="M471.75,331.98c-0.19,0.31-0.39,0.62-0.58,0.93c0.17-0.33,0.34-0.67,0.52-1L471.75,331.98z"/>
	<path class="st4" d="M646.48,265.7c-0.28,0.29-0.56,0.58-0.83,0.87c0.15-0.43,0.3-0.85,0.45-1.28
		C646.09,265.29,646.48,265.7,646.48,265.7z"/>
	<path class="st4" d="M70.04,235.32c0.2,0.45,0.4,0.89,0.6,1.34c-0.44-0.19-0.89-0.39-1.33-0.58
		C69.55,235.82,69.8,235.57,70.04,235.32z"/>
	<path class="st3" d="M164.52,307.42c0.3,0.25,0.61,0.5,0.91,0.74c-0.4-0.15-0.81-0.3-1.21-0.44L164.52,307.42z"/>
	<path class="st2" d="M150.82,495.77c2.96,0.9,5.97,1.7,8.88,2.73c21.65,7.65,43.51,14.65,65.94,19.65
		c7.37,1.64,14.96,2.27,22.45,3.36c8.37,1.21,16.73,2.47,25.11,3.59c5.3,0.71,10.63,1.31,15.96,1.8
		c10.01,0.93,20.02,1.75,30.04,2.59c1.57,0.13,3.16,0.04,4.73,0.12c8.73,0.42,17.46,1.1,26.2,1.21c5.79,0.07,11.59-0.82,17.4-0.98
		c7.44-0.22,14.91,0.16,22.33-0.27c9.35-0.55,18.68-1.58,28-2.54c8.21-0.84,16.44-1.58,24.59-2.86c13.62-2.15,27.26-4.32,40.75-7.17
		c19.15-4.04,38.23-8.43,57.21-13.18c13.17-3.29,26.14-7.42,39.19-11.18c0.77-0.22,1.55-0.44,3.17-0.89
		c-4.1,20.26-8.16,39.77-11.99,59.32c-3.37,17.25-6.3,34.58-9.77,51.8c-4.57,22.67-9.46,45.27-14.25,67.89
		c-3.32,15.66-6.63,31.32-10.09,46.96c-1.78,8.03-3.59,16.07-5.92,23.95c-1.38,4.69-5.19,7.9-9.4,10.17
		c-14.62,7.89-29.99,14.08-45.93,18.63c-13.68,3.91-27.57,7.13-41.47,10.21c-7.59,1.68-15.38,2.41-23.08,3.57
		c-16.47,2.49-33.05,3.1-49.65,2.52c-7.32-0.26-14.61-1.53-21.92-2.33c-0.89-0.1-1.8-0.19-2.69-0.18
		c-16.21,0.22-31.99-2.43-47.56-6.81c-15-4.22-30.31-7.51-45.02-12.56c-13.29-4.56-25.94-10.95-38.9-16.48
		c-3.34-1.42-5.01-3.78-6.26-7.26c-7.29-20.4-12.23-41.43-16.63-62.56c-3.9-18.72-6.49-37.71-9.94-56.54
		c-3.32-18.14-7.2-36.19-10.44-54.34c-2.65-14.9-4.69-29.9-7.05-44.85c-0.87-5.5-1.96-10.96-2.81-16.46
		c-0.54-3.51-0.81-7.07-1.21-10.6L150.82,495.77z"/>
	<path class="st5" d="M150.8,495.79c-0.31-0.18-0.62-0.36-0.92-0.55c0.31,0.18,0.63,0.35,0.94,0.53L150.8,495.79z"/>
</g>
</svg>
